<svg width="201" height="127" viewBox="0 0 201 127" fill="none" xmlns="http://www.w3.org/2000/svg">
<path d="M165.25 8L191.504 69.26C192.491 71.5623 193 74.0422 193 76.5471V82" stroke="#973333" stroke-width="15" stroke-linecap="round" stroke-linejoin="round"/>
<path d="M35.75 8L9.49582 69.26C8.50894 71.5623 8 74.0422 8 76.5471V82" stroke="#973333" stroke-width="15" stroke-linecap="round" stroke-linejoin="round"/>
<path d="M45 119C65.4345 119 82 102.435 82 82C82 61.5655 65.4345 45 45 45C24.5655 45 8 61.5655 8 82C8 102.435 24.5655 119 45 119Z" stroke="#D83D3D" stroke-width="15" stroke-linecap="round" stroke-linejoin="round"/>
<path d="M156 119C176.435 119 193 102.435 193 82C193 61.5655 176.435 45 156 45C135.565 45 119 61.5655 119 82C119 102.435 135.565 119 156 119Z" stroke="#D83D3D" stroke-width="15" stroke-linecap="round" stroke-linejoin="round"/>
<path d="M82 82.0002L83.9527 81.0234C94.37 75.8156 106.63 75.8156 117.047 81.0234L119 82.0002" stroke="#D83D3D" stroke-width="15" stroke-linecap="round" stroke-linejoin="round"/>
</svg>
