<svg width="209" height="136" viewBox="0 0 209 136" fill="none" xmlns="http://www.w3.org/2000/svg">
<path d="M169.25 13L195.504 74.26C196.491 76.5623 197 79.0422 197 81.5471V87" stroke="#973333" stroke-width="24" stroke-linecap="round" stroke-linejoin="round"/>
<path d="M39.75 13L13.4958 74.26C12.5089 76.5623 12 79.0422 12 81.5471V87" stroke="#973333" stroke-width="24" stroke-linecap="round" stroke-linejoin="round"/>
<path d="M49 124C69.4345 124 86 107.435 86 87C86 66.5655 69.4345 50 49 50C28.5655 50 12 66.5655 12 87C12 107.435 28.5655 124 49 124Z" stroke="#D83D3D" stroke-width="24" stroke-linecap="round" stroke-linejoin="round"/>
<path d="M160 124C180.435 124 197 107.435 197 87C197 66.5655 180.435 50 160 50C139.565 50 123 66.5655 123 87C123 107.435 139.565 124 160 124Z" stroke="#D83D3D" stroke-width="24" stroke-linecap="round" stroke-linejoin="round"/>
<path d="M86 87.0002L87.9527 86.0234C98.37 80.8156 110.63 80.8156 121.047 86.0234L123 87.0002" stroke="#D83D3D" stroke-width="24" stroke-linecap="round" stroke-linejoin="round"/>
</svg>
