<svg width="32" height="32" viewBox="0 0 32 32" fill="none" xmlns="http://www.w3.org/2000/svg">
<path d="M25.3333 14.6667H6.66667C5.19391 14.6667 4 15.8606 4 17.3334V26.6667C4 28.1394 5.19391 29.3334 6.66667 29.3334H25.3333C26.8061 29.3334 28 28.1394 28 26.6667V17.3334C28 15.8606 26.8061 14.6667 25.3333 14.6667Z" stroke="#3B3441" stroke-width="3" stroke-linecap="round" stroke-linejoin="round"/>
<path d="M9.33334 14.6667V9.33335C9.33334 7.56524 10.0357 5.86955 11.286 4.61931C12.5362 3.36907 14.2319 2.66669 16 2.66669C17.7681 2.66669 19.4638 3.36907 20.7141 4.61931C21.9643 5.86955 22.6667 7.56524 22.6667 9.33335V14.6667" stroke="#3B3441" stroke-width="3" stroke-linecap="round" stroke-linejoin="round"/>
</svg>
