<svg width="32" height="32" viewBox="0 0 32 32" fill="none" xmlns="http://www.w3.org/2000/svg">
<path d="M26.6666 2.66663H5.33329C3.86053 2.66663 2.66663 3.86053 2.66663 5.33329V10.6666C2.66663 12.1394 3.86053 13.3333 5.33329 13.3333H26.6666C28.1394 13.3333 29.3333 12.1394 29.3333 10.6666V5.33329C29.3333 3.86053 28.1394 2.66663 26.6666 2.66663Z" stroke="#3B3441" stroke-width="3" stroke-linecap="round" stroke-linejoin="round"/>
<path d="M26.6666 18.6666H5.33329C3.86053 18.6666 2.66663 19.8605 2.66663 21.3333V26.6666C2.66663 28.1394 3.86053 29.3333 5.33329 29.3333H26.6666C28.1394 29.3333 29.3333 28.1394 29.3333 26.6666V21.3333C29.3333 19.8605 28.1394 18.6666 26.6666 18.6666Z" stroke="#3B3441" stroke-width="3" stroke-linecap="round" stroke-linejoin="round"/>
<path d="M8 8H8.01333" stroke="#3B3441" stroke-width="3" stroke-linecap="round" stroke-linejoin="round"/>
<path d="M8 24H8.01333" stroke="#3B3441" stroke-width="3" stroke-linecap="round" stroke-linejoin="round"/>
</svg>
