<svg height="22" viewBox="0 0 19 20" fill="none" xmlns="http://www.w3.org/2000/svg">
	<g clip-path="url(#clip0)">
		<path d="M18.5955 11.9898C18.3162 13.4006 16.094 14.9446 13.5419 15.2439C12.211 15.3998 10.9007 15.5431 9.50341 15.4802C7.21834 15.3774 5.41526 14.9446 5.41526 14.9446C5.41526 15.163 5.42898 15.371 5.45642 15.5655C5.75349 17.7797 7.69254 17.9124 9.52931 17.9742C11.3832 18.0365 13.034 17.5254 13.034 17.5254L13.1101 19.1711C13.1101 19.1711 11.8134 19.8548 9.50341 19.9805C8.22962 20.0493 6.64801 19.9491 4.80586 19.4703C0.810549 18.432 0.123447 14.2504 0.0183135 10.0074C-0.0137315 8.74769 0.00602226 7.55981 0.00602226 6.56632C0.00602226 2.22771 2.90116 0.955994 2.90116 0.955994C4.36096 0.297725 6.86585 0.0209043 9.46994 0H9.53392C12.138 0.0209043 14.6445 0.297725 16.1042 0.955994C16.1042 0.955994 18.9993 2.22771 18.9993 6.56632C18.9993 6.56632 19.0356 9.76737 18.5955 11.9898Z" fill="white"/>
		<path d="M15.5844 6.90291V12.1562H13.4647V7.05732C13.4647 5.98247 13.0041 5.43691 12.0828 5.43691C11.0642 5.43691 10.5537 6.08408 10.5537 7.36377V10.1547H8.4465V7.36377C8.4465 6.08408 7.93586 5.43691 6.91722 5.43691C5.99593 5.43691 5.53534 5.98247 5.53534 7.05732V12.1562H3.41565V6.90291C3.41565 5.82924 3.69407 4.97605 4.25332 4.34482C4.83002 3.7136 5.58527 3.39001 6.52281 3.39001C7.60751 3.39001 8.42894 3.79937 8.97206 4.6182L9.50003 5.48723L10.0281 4.6182C10.5711 3.79937 11.3926 3.39001 12.4774 3.39001C13.4148 3.39001 14.17 3.7136 14.7469 4.34482C15.306 4.97605 15.5844 5.82924 15.5844 6.90291Z" fill="black"/>
	</g>
	<defs>
		<clipPath id="clip0">
			<rect width="19" height="20" fill="white"/>
		</clipPath>
	</defs>
</svg>
