<svg width="43" height="64" viewBox="0 0 43 64" fill="none" xmlns="http://www.w3.org/2000/svg">
<path d="M40.8543 39.3018C40.114 32.9085 35.4031 27.9285 29.4137 26.3807C33.1823 23.756 35.6723 19.3817 35.6723 14.469C35.6723 6.52787 29.2118 0 21.2034 0C13.2622 0 6.73438 6.46057 6.73438 14.469C6.73438 19.3817 9.22439 23.756 12.9931 26.3807C7.00357 27.8612 2.29274 32.9085 1.55246 39.3691L0.00462057 59.2892C-0.062677 60.3659 0.610299 61.3754 1.68706 61.6446C7.87844 63.1924 14.4736 64 21.2034 64C27.9331 64 34.5283 63.1924 40.7197 61.6446C41.7964 61.3754 42.5367 60.3659 42.4021 59.2892L40.8543 39.3018ZM21.2034 4.57624C26.7218 4.57624 31.1634 9.01788 31.1634 14.5363C31.1634 20.0547 26.7218 24.4963 21.2034 24.4963C15.685 24.4963 11.2433 20.0547 11.2433 14.5363C11.2433 9.01788 15.685 4.57624 21.2034 4.57624ZM4.64815 57.7413L6.0614 39.8402C6.73438 34.4564 11.3106 30.4185 16.6944 30.4185H25.7796C31.2307 30.4185 35.7396 34.4564 36.4126 39.7729L37.8259 57.7413C27.1928 60.0967 15.2139 60.0967 4.64815 57.7413Z" fill="white"/>
<path d="M21.4725 55.857C22.6991 55.857 23.6934 54.8627 23.6934 53.6362C23.6934 52.4096 22.6991 51.4153 21.4725 51.4153C20.246 51.4153 19.2517 52.4096 19.2517 53.6362C19.2517 54.8627 20.246 55.857 21.4725 55.857Z" fill="white"/>
<path d="M21.2708 34.9274C17.031 34.9274 14.8775 37.8212 14.4737 40.8496C14.4064 41.4553 14.8775 41.9937 15.4832 41.9937H17.0983C17.5694 41.9937 18.0405 41.6572 18.1078 41.1188C18.3097 39.9748 18.9826 38.5615 21.3381 38.5615C23.0878 38.5615 23.8281 39.5037 24.0973 40.0421C24.501 40.8496 24.4337 41.7918 23.9627 42.5321C23.4243 43.205 22.9532 43.5415 22.4148 43.9453C21.0689 44.8875 19.9921 45.8969 19.7902 48.6561C19.7229 49.2618 20.194 49.7329 20.7997 49.7329H22.4148C22.9532 49.7329 23.357 49.3291 23.4243 48.7907C23.4916 47.5794 23.8281 47.3775 24.5683 46.9064C25.174 46.4353 26.0489 45.8297 26.9237 44.6856C28.2697 42.8686 28.4043 40.5131 27.3948 38.4269C26.1835 36.2061 23.9627 34.9274 21.2708 34.9274Z" fill="white"/>
</svg>
